PathFileType	4	(X/Y/Z)	Exemple_fichier.trc																																					
DataRate	CameraRate	NumFrames	NumMarkers	Units	OrigDataRate	OrigDataStartFrame	OrigNumFrames																																	
100	100	30	13	m	100	876	1000																																	
Frame#	Time	C7			T10			CLAV			STRN			RSHO			RUPA			RELB			RFRA			RWRA			RWRB			RFIN0			RFINx			RFINy		
		X1	Y1	Z1	X2	Y2	Z2	X3	Y3	Z3	X4	Y4	Z4	X5	Y5	Z5	X6	Y6	Z6	X7	Y7	Z7	X8	Y8	Z8	X9	Y9	Z9	X10	Y10	Z10	X11	Y11	Z11	X12	Y12	Z12	X13	Y13	Z13
																																								
876	8.75	0.4219877	1.288074	-0.08348514	0.4236577	1.146775	-0.05320239	0.4322006	1.227283	-0.2061777	0.4325293	1.099583	-0.3146794	0.5778041	1.250364	-0.1520176	0.6904131	1.098517	-0.2352973	0.7416888	1.039453	-0.2447752	0.6338747	1.063783	-0.3760467	0.5823832	1.044598	-0.4082966	0.6183449	1.063789	-0.435422	0.580998	1.078287	-0.4693656	0.5651074	1.087156	-0.4792841	0.5613493	1.079163	-0.4444373
877	8.76	0.4225147	1.288129	-0.08347125	0.4241361	1.146795	-0.0531455	0.4326018	1.227265	-0.2061198	0.4328162	1.099621	-0.3146287	0.5782586	1.250275	-0.1520667	0.6906306	1.098171	-0.2354088	0.741853	1.039057	-0.2448398	0.6340198	1.062778	-0.3762282	0.5825433	1.043443	-0.4083587	0.61841	1.062438	-0.4355956	0.5810164	1.076727	-0.4696591	0.5651076	1.0855	-0.4796201	0.5614134	1.077763	-0.4447118
878	8.77	0.4230312	1.288188	-0.08345966	0.4246036	1.14682	-0.05308922	0.4329921	1.227249	-0.2060613	0.4330852	1.099658	-0.3145799	0.5787048	1.250196	-0.1521223	0.6908535	1.097841	-0.2355222	0.742023	1.038683	-0.2449052	0.6341747	1.061774	-0.3764125	0.5826469	1.042293	-0.4084071	0.6184866	1.061073	-0.435773	0.5810404	1.075143	-0.469955	0.5651202	1.083828	-0.4799581	0.5614896	1.076349	-0.4449884
879	8.78	0.4235364	1.288253	-0.08345006	0.425059	1.146849	-0.05303234	0.4333728	1.227234	-0.2060033	0.4333366	1.099691	-0.3145302	0.5791422	1.250125	-0.1521829	0.6910806	1.097528	-0.2356351	0.7421957	1.038329	-0.2449678	0.6343334	1.060773	-0.3765953	0.5826828	1.041151	-0.4084378	0.6185742	1.059703	-0.4359517	0.5810666	1.073537	-0.4702516	0.5651452	1.082144	-0.4802978	0.5615758	1.074924	-0.4452659
880	8.79	0.4240291	1.28832	-0.08344202	0.4255026	1.146881	-0.05297375	0.4337446	1.22722	-0.2059471	0.4335706	1.099712	-0.3144771	0.5795698	1.250062	-0.1522465	0.6913116	1.097231	-0.2357455	0.7423687	1.037994	-0.2450248	0.6344908	1.059777	-0.3767737	0.5826429	1.040021	-0.4084468	0.6186708	1.058331	-0.4361276	0.5810891	1.071913	-0.4705445	0.5651806	1.080454	-0.4806348	0.5616683	1.073492	-0.4455408
881	8.8	0.4245081	1.28839	-0.08343556	0.4259362	1.146914	-0.05291315	0.4341074	1.227205	-0.2058937	0.4337887	1.099719	-0.3144194	0.5799863	1.250004	-0.1523119	0.6915469	1.096949	-0.2358525	0.742541	1.037676	-0.2450751	0.6346423	1.058786	-0.3769455	0.5825255	1.038901	-0.4084304	0.6187728	1.056964	-0.4362964	0.5811013	1.070278	-0.4708264	0.5652223	1.078765	-0.480961	0.5617624	1.072057	-0.4458067
882	8.81	0.4249726	1.288462	-0.08343137	0.4263629	1.146947	-0.05285173	0.4344611	1.22719	-0.2058441	0.4339944	1.09971	-0.3143578	0.5803908	1.249952	-0.152379	0.6917874	1.096685	-0.235956	0.742713	1.037376	-0.2451196	0.6347841	1.057803	-0.3771092	0.5823494	1.037789	-0.4083901	0.6188751	1.055603	-0.4364534	0.5810974	1.068639	-0.4710894	0.5652645	1.077082	-0.4812662	0.5618526	1.070619	-0.4460556
883	8.82	0.4254227	1.288533	-0.08343037	0.426786	1.146981	-0.05279157	0.4348054	1.227174	-0.2057983	0.4341913	1.099687	-0.3142933	0.5807824	1.249904	-0.1524482	0.692033	1.096437	-0.2360567	0.7428853	1.037094	-0.2451603	0.6349129	1.056828	-0.3772631	0.5821506	1.036676	-0.4083335	0.6189721	1.054251	-0.4365956	0.581075	1.067006	-0.4713261	0.5653013	1.075412	-0.4815412	0.5619331	1.069182	-0.4462803
884	8.83	0.4258589	1.288604	-0.08343317	0.4272081	1.147016	-0.05273411	0.4351402	1.227157	-0.2057565	0.4343821	1.099652	-0.3142266	0.5811605	1.249862	-0.15252	0.6922816	1.096205	-0.2361541	0.7430581	1.036828	-0.2451997	0.6350264	1.055862	-0.3774061	0.5819631	1.035554	-0.4082682	0.6190584	1.052912	-0.4367211	0.5810366	1.065388	-0.4715323	0.565328	1.073757	-0.4817813	0.5619993	1.067748	-0.4464766
885	8.84	0.4262824	1.288676	-0.08343989	0.4276296	1.147053	-0.05267913	0.435465	1.22714	-0.2057184	0.4345685	1.099607	-0.3141579	0.581525	1.249824	-0.1525947	0.6925287	1.095984	-0.2362467	0.7432303	1.036577	-0.2452398	0.6351234	1.054906	-0.3775366	0.5818072	1.034423	-0.4081988	0.61913	1.051588	-0.4368296	0.5809881	1.063793	-0.4717076	0.5653411	1.072121	-0.481987	0.5620486	1.06632	-0.4466444
886	8.85	0.4266939	1.288747	-0.08345011	0.4280493	1.147094	-0.05262503	0.4357797	1.227122	-0.2056837	0.4347509	1.099555	-0.314087	0.5818767	1.24979	-0.1526725	0.6927684	1.09577	-0.2363326	0.7434003	1.03634	-0.2452822	0.6352041	1.05396	-0.3776536	0.5816909	1.033286	-0.4081266	0.6191843	1.05028	-0.4369222	0.5809355	1.062225	-0.4718557	0.5653391	1.070504	-0.4821633	0.5620803	1.064903	-0.446787
887	8.86	0.427094	1.288819	-0.08346294	0.4284655	1.14714	-0.05256982	0.4360843	1.227106	-0.2056517	0.4349293	1.099501	-0.314014	0.5822166	1.24976	-0.1527535	0.6929963	1.09556	-0.2364113	0.7435668	1.036114	-0.2453276	0.6352696	1.053026	-0.3777572	0.5816147	1.03215	-0.4080523	0.619221	1.048991	-0.4370004	0.5808826	1.060684	-0.4719827	0.5653218	1.068907	-0.4823172	0.5620947	1.063499	-0.4469097
888	8.87	0.4274827	1.288893	-0.0834773	0.4288767	1.147191	-0.05251211	0.4363796	1.227091	-0.2056219	0.4351029	1.099446	-0.313938	0.5825461	1.249733	-0.1528375	0.6932101	1.09535	-0.2364843	0.7437291	1.035897	-0.2453766	0.6353224	1.052104	-0.3778485	0.581575	1.031019	-0.407977	0.6192417	1.047721	-0.4370667	0.5808311	1.059169	-0.4720948	0.5652907	1.067329	-0.4824553	0.562094	1.062113	-0.4470178
889	8.88	0.4278604	1.28897	-0.08349224	0.4292814	1.147246	-0.05245176	0.4366667	1.22708	-0.2055939	0.435271	1.099393	-0.3138577	0.5828671	1.249709	-0.1529236	0.6934094	1.095142	-0.2365543	0.7438873	1.035687	-0.2454293	0.635366	1.051195	-0.3779297	0.5815673	1.029896	-0.4079025	0.619249	1.046469	-0.4371237	0.5807818	1.057679	-0.4721962	0.565248	1.06577	-0.4825827	0.5620817	1.060747	-0.4471152
890	8.89	0.428228	1.289051	-0.08350731	0.4296777	1.147305	-0.05238964	0.4369466	1.227071	-0.2055672	0.4354326	1.099342	-0.3137715	0.5831822	1.249687	-0.1530113	0.6935947	1.094937	-0.2366242	0.7440416	1.035484	-0.245486	0.6354046	1.050298	-0.3780034	0.5815874	1.028781	-0.4078306	0.6192458	1.045236	-0.4371738	0.5807345	1.056212	-0.4722888	0.5651967	1.064232	-0.4827021	0.5620616	1.059402	-0.4472044
891	8.9	0.4285866	1.289134	-0.08352273	0.4300646	1.147368	-0.05232682	0.4372202	1.227065	-0.2055413	0.4355867	1.099293	-0.3136784	0.5834925	1.249668	-0.1530999	0.6937674	1.094736	-0.2366965	0.7441924	1.035288	-0.2455469	0.6354426	1.049413	-0.378072	0.5816333	1.027672	-0.4077639	0.619235	1.044022	-0.4372192	0.5806893	1.054769	-0.4723736	0.5651402	1.062716	-0.482815	0.562037	1.058081	-0.4472869
892	8.91	0.4289378	1.28922	-0.08353923	0.4304424	1.147432	-0.0522641	0.4374883	1.227062	-0.2055161	0.435733	1.099245	-0.3135788	0.5837978	1.249652	-0.1531885	0.6939297	1.09454	-0.2367731	0.74434	1.035098	-0.2456124	0.6354836	1.048541	-0.3781373	0.5817063	1.02657	-0.4077054	0.6192195	1.042828	-0.437262	0.5806462	1.05335	-0.4724514	0.5650815	1.061225	-0.482923	0.5620106	1.056782	-0.447365
893	8.92	0.4292826	1.289307	-0.08355734	0.4308114	1.147497	-0.05220185	0.4377514	1.227062	-0.2054912	0.4358714	1.099199	-0.3134747	0.5840972	1.24964	-0.153276	0.6940839	1.09435	-0.2368545	0.7444844	1.034917	-0.2456827	0.6355301	1.047682	-0.3782008	0.5818111	1.025473	-0.4076577	0.619202	1.041655	-0.4373035	0.5806065	1.051958	-0.4725243	0.5650236	1.059759	-0.4830289	0.5619848	1.055507	-0.4474417
894	8.93	0.4296213	1.289394	-0.08357697	0.4311716	1.147563	-0.05213965	0.4380097	1.227064	-0.2054664	0.4360032	1.099154	-0.313369	0.5843904	1.249632	-0.1533611	0.6942321	1.094167	-0.2369401	0.7446252	1.034743	-0.2457568	0.6355828	1.046838	-0.3782634	0.5819578	1.024383	-0.4076212	0.619186	1.040507	-0.4373441	0.580572	1.050594	-0.4725956	0.5649693	1.058321	-0.4831367	0.5619618	1.054257	-0.4475215
895	8.94	0.4299533	1.289482	-0.08359725	0.4315223	1.147629	-0.05207613	0.4382629	1.227069	-0.2054418	0.4361299	1.099112	-0.3132645	0.5846779	1.24963	-0.1534424	0.6943757	1.09399	-0.237028	0.7447619	1.034575	-0.2458322	0.635642	1.04601	-0.3783252	0.582159	1.023304	-0.4075939	0.6191748	1.039387	-0.4373834	0.5805451	1.04926	-0.4726688	0.564921	1.056909	-0.4832501	0.5619433	1.053031	-0.4476087
896	8.95	0.4302769	1.289569	-0.08361679	0.4318615	1.147696	-0.05200972	0.4385105	1.227076	-0.2054174	0.4362542	1.099073	-0.3131638	0.5849598	1.249634	-0.1535186	0.6945154	1.093821	-0.2371152	0.7448938	1.034414	-0.2459049	0.6357078	1.045199	-0.3783861	0.582422	1.02224	-0.4075738	0.6191723	1.038296	-0.4374213	0.5805287	1.047959	-0.4727467	0.5648814	1.055526	-0.4833718	0.5619314	1.051833	-0.4477063
897	8.96	0.4305909	1.289656	-0.08363432	0.432187	1.147764	-0.05193972	0.438752	1.227085	-0.2053938	0.4363793	1.099039	-0.3130701	0.5852354	1.249641	-0.1535888	0.694651	1.093659	-0.2371984	0.7450215	1.034256	-0.2459705	0.6357804	1.044408	-0.3784457	0.5827396	1.0212	-0.4075599	0.6191818	1.037237	-0.4374573	0.5805261	1.046692	-0.4728305	0.5648533	1.054171	-0.4835016	0.5619286	1.050665	-0.447815
898	8.97	0.430895	1.289743	-0.08364929	0.4324974	1.147834	-0.05186669	0.4389868	1.227095	-0.2053717	0.4365086	1.099013	-0.3129868	0.5855032	1.249651	-0.153653	0.6947824	1.093503	-0.2372747	0.7451459	1.034101	-0.2460252	0.63586	1.043642	-0.3785034	0.5830881	1.020193	-0.407549	0.6192065	1.036212	-0.4374909	0.58054	1.045461	-0.4729192	0.5648397	1.052847	-0.4836367	0.5619376	1.04953	-0.4479325
899	8.98	0.4311894	1.28983	-0.08366206	0.4327923	1.147903	-0.05179198	0.4392144	1.227107	-0.2053516	0.4366448	1.098998	-0.3129164	0.5857615	1.249663	-0.153712	0.6949104	1.093355	-0.2373418	0.7452687	1.033949	-0.2460665	0.6359474	1.042906	-0.3785585	0.583431	1.019235	-0.4075344	0.619249	1.035222	-0.4375208	0.5805721	1.04427	-0.4730104	0.5648433	1.051557	-0.4837723	0.5619613	1.04843	-0.4480543
900	8.99	0.4314742	1.289919	-0.08367358	0.4330712	1.14797	-0.05171686	0.4394339	1.227121	-0.2053335	0.4367887	1.098992	-0.3128594	0.5860086	1.249674	-0.1537674	0.6950374	1.093214	-0.2373976	0.745392	1.0338	-0.2460928	0.6360433	1.0422	-0.3786094	0.5837318	1.018339	-0.4075086	0.6193104	1.034268	-0.4375448	0.5806222	1.043118	-0.4730999	0.5648654	1.050306	-0.4839029	0.5620014	1.047369	-0.4481744
901	9	0.4317486	1.290007	-0.08368479	0.4333337	1.148035	-0.05164206	0.4396447	1.227137	-0.2053175	0.4369403	1.098997	-0.3128145	0.5862438	1.249686	-0.1538206	0.6951665	1.09308	-0.2374401	0.745517	1.033656	-0.2461031	0.6361479	1.041526	-0.3786537	0.5839733	1.01751	-0.407469	0.6193891	1.033348	-0.43756	0.5806873	1.042007	-0.4731831	0.5649057	1.049098	-0.4840232	0.5620573	1.046346	-0.4482862
902	9.01	0.4320118	1.290094	-0.08369623	0.4335804	1.148099	-0.05156778	0.4398466	1.227155	-0.2053033	0.4370989	1.09901	-0.3127797	0.5864677	1.249698	-0.1538723	0.6953001	1.092955	-0.2374676	0.7456449	1.03352	-0.2460973	0.6362598	1.040883	-0.3786879	0.5841612	1.016743	-0.4074184	0.6194812	1.032463	-0.4375633	0.5807614	1.040932	-0.4732555	0.5649614	1.047933	-0.4841289	0.5621258	1.045362	-0.4483842
903	9.02	0.4322635	1.290177	-0.08370818	0.4338123	1.148162	-0.05149418	0.4400393	1.227175	-0.2052911	0.4372634	1.099031	-0.3127528	0.5866812	1.24971	-0.1539228	0.6954396	1.092837	-0.2374786	0.7457753	1.033392	-0.2460756	0.6363761	1.04027	-0.3787084	0.5843107	1.016027	-0.4073596	0.6195805	1.031611	-0.4375519	0.5808365	1.03989	-0.4733138	0.5650269	1.046811	-0.4842168	0.5622014	1.044417	-0.4484642
904	9.03	0.4325034	1.290258	-0.08372091	0.43403	1.148226	-0.05142162	0.4402224	1.227197	-0.2052804	0.4374316	1.099058	-0.3127317	0.5868853	1.249724	-0.153972	0.6955842	1.092727	-0.2374729	0.7459071	1.033273	-0.2460392	0.6364929	1.039683	-0.3787124	0.5844343	1.015351	-0.407292	0.6196805	1.030791	-0.437524	0.5809062	1.038876	-0.4733562	0.5650949	1.045729	-0.4842849	0.5622777	1.043508	-0.4485235
905	9.04	0.4327311	1.290335	-0.0837348	0.4342332	1.148291	-0.05135056	0.4403953	1.22722	-0.2052708	0.4376006	1.099091	-0.3127142	0.5870796	1.249738	-0.154019	0.6957316	1.092623	-0.2374512	0.7460381	1.03316	-0.2459901	0.6366059	1.039123	-0.3786983	0.58454	1.014707	-0.4072131	0.619775	1.030001	-0.4374785	0.5809664	1.037892	-0.4733816	0.5651575	1.044684	-0.4843324	0.5623488	1.042633	-0.4485611
